<svg xmlns="http://www.w3.org/2000/svg" width="42.564" height="42.564" viewBox="0 0 42.564 42.564">
  <g id="Group_35" data-name="Group 35" transform="translate(-102.168 -139.038)">
    <path id="Path_19" data-name="Path 19" d="M141.986,148.648a1.373,1.373,0,1,1,1.373-1.373A1.374,1.374,0,0,1,141.986,148.648Zm-2.06,15.1v4.119a2.061,2.061,0,0,1-2.059,2.06h-2.06v-1.373h1.373a1.375,1.375,0,0,0,1.373-1.373v-2.746a1.375,1.375,0,0,0-1.373-1.373h-1.373v-1.373h2.06A2.061,2.061,0,0,1,139.926,163.752Zm-6.178,16.477h-27.46a.688.688,0,0,1-.687-.687V159.633h28.834v19.909A.688.688,0,0,1,133.748,180.229Zm.687-37.072v15.1H105.6v-15.1Zm-30.893-2.746h32.953v1.373H103.541Zm32.266,24.028h1.373v2.747h-1.373Zm8.924-17.163a2.746,2.746,0,1,0-3.433,2.649v2.519a2.044,2.044,0,0,1-1.138,1.841l-1.083.543a3.413,3.413,0,0,0-1.9,3.071v2.422h-1.373V143.157h.687a1.375,1.375,0,0,0,1.373-1.373v-1.373a1.375,1.375,0,0,0-1.373-1.373H103.541a1.375,1.375,0,0,0-1.373,1.373v1.373a1.375,1.375,0,0,0,1.373,1.373h.687v36.385a2.061,2.061,0,0,0,2.059,2.06h27.46a2.062,2.062,0,0,0,2.06-2.06V171.3h2.059a3.436,3.436,0,0,0,3.433-3.433v-4.119a3.438,3.438,0,0,0-2.746-3.364V157.9a2.046,2.046,0,0,1,1.138-1.841l1.083-.541a3.415,3.415,0,0,0,1.9-3.071v-2.519A2.745,2.745,0,0,0,144.732,147.276Z"/>
    <path id="Path_20" data-name="Path 20" d="M109.476,147.194h6.865v9.612h-6.865Zm23.342,9.612h-6.865v-9.612h6.865Zm-15.1,0v-9.612h6.865v9.612Zm16.476,1.373V145.821H108.1v12.357Z" transform="translate(-1.129 -1.29)"/>
    <path id="Path_21" data-name="Path 21" d="M111.494,149.211v2.06h1.373v-.687h1.327l-1.97,5.252,1.287.481,2.1-5.609v-1.5Z" transform="translate(-1.774 -1.935)"/>
    <path id="Path_22" data-name="Path 22" d="M121.668,149.211v2.06h1.373v-.687h1.327l-1.97,5.252,1.287.481,2.1-5.609v-1.5Z" transform="translate(-3.71 -1.935)"/>
    <path id="Path_23" data-name="Path 23" d="M133.214,151.271v-.687h1.327l-1.97,5.252,1.287.481,2.1-5.609v-1.5h-4.119v2.06Z" transform="translate(-5.645 -1.935)"/>
    <path id="Path_24" data-name="Path 24" d="M109.476,174.324h2.747V175.7c0,3.786,4,6.865,8.924,6.865s8.924-3.079,8.924-6.865v-1.373h2.746v9.612H109.476Zm16.477,4.406a8.31,8.31,0,0,0,2.6-1.945,5.515,5.515,0,0,1-2.6,3.144Zm-4.119,1.062a11.076,11.076,0,0,0,2.746-.51v1.3a9.634,9.634,0,0,1-2.746.58Zm-4.119-.506a11.173,11.173,0,0,0,2.746.506v1.373a9.717,9.717,0,0,1-2.746-.581Zm-1.373-.551v1.2a5.519,5.519,0,0,1-2.6-3.141,8.281,8.281,0,0,0,2.6,1.946Zm.756-4.411h8.093a6.058,6.058,0,0,1-4.044,1.373,5.99,5.99,0,0,1-4.049-1.373Zm4.049,2.746c2.888,0,4.982-1.308,5.795-2.746h1.51c-.848,2.393-3.822,4.119-7.3,4.119s-6.46-1.723-7.3-4.119h1.509c.9,1.637,3.187,2.746,5.8,2.746ZM108.1,185.308H134.19V172.951H108.1Z" transform="translate(-1.129 -6.452)"/>
    <path id="Path_25" data-name="Path 25" d="M137.292,168.914a.687.687,0,1,1,.687-.687A.688.688,0,0,1,137.292,168.914Zm0-2.746a2.059,2.059,0,1,0,2.06,2.059A2.061,2.061,0,0,0,137.292,166.168Z" transform="translate(-6.29 -5.161)"/>
    <path id="Path_26" data-name="Path 26" d="M130.51,167.541a.686.686,0,1,1-.687.686A.687.687,0,0,1,130.51,167.541Zm0,2.746a2.06,2.06,0,1,0-2.06-2.06A2.061,2.061,0,0,0,130.51,170.287Z" transform="translate(-5 -5.161)"/>
    <path id="Path_27" data-name="Path 27" d="M116.341,168.914h-1.373v-1.373h1.373Zm-6.865-1.373h1.373v1.373h-1.373Zm4.119,0v1.373h-1.373v-1.373Zm4.119-1.373H108.1v4.118h9.611Z" transform="translate(-1.129 -5.161)"/>
    <path id="Path_28" data-name="Path 28" d="M124.414,168.914h-1.373v-1.373h1.373Zm1.373-2.746h-4.118v4.118h4.118Z" transform="translate(-3.71 -5.161)"/>
  </g>
</svg>
