<svg xmlns="http://www.w3.org/2000/svg" width="19.752" height="19.439" viewBox="0 0 19.752 19.439">
  <g id="Group_11" data-name="Group 11" transform="translate(-102.806 -290.142)">
    <g id="Group_7" data-name="Group 7" transform="translate(102.806 290.142)">
      <path id="Path_6" data-name="Path 6" d="M107.491,299.512a.411.411,0,0,1-.29-.12l-4.276-4.276a.409.409,0,0,1,0-.579l4.276-4.275a.409.409,0,0,1,.579,0l4.276,4.275a.409.409,0,0,1,0,.579l-4.276,4.276A.41.41,0,0,1,107.491,299.512Zm-3.7-4.685,3.7,3.7,3.7-3.7-3.7-3.7Z" transform="translate(-102.806 -290.142)" fill="#a5a5a5"/>
    </g>
    <g id="Group_8" data-name="Group 8" transform="translate(113.251 290.426)">
      <path id="Path_7" data-name="Path 7" d="M133.672,299.848h-1.419a.415.415,0,0,1-.149-.028,1.058,1.058,0,0,1-.81-1.024,1.042,1.042,0,0,1,.078-.4,2.593,2.593,0,0,1-2.717-3.848,2.581,2.581,0,0,1,1.726-1.243,2.593,2.593,0,0,1,5.181,0,2.585,2.585,0,0,1,1.707,1.239h0a2.593,2.593,0,0,1-2.717,3.848,1.046,1.046,0,0,1,.078.4,1.059,1.059,0,0,1-.815,1.025A.405.405,0,0,1,133.672,299.848Zm-1.347-.819H133.6l.012,0a.234.234,0,0,0,.179-.326c-.172-.382-.3-.685-.387-.9a.409.409,0,0,1,.612-.489,1.776,1.776,0,0,0,2.543-2.353h0a1.772,1.772,0,0,0-1.44-.884.408.408,0,0,1-.384-.453,1.774,1.774,0,1,0-3.526,0,.409.409,0,0,1-.388.453,1.775,1.775,0,1,0,1.088,3.237.409.409,0,0,1,.612.489c-.086.214-.216.517-.387.9a.235.235,0,0,0,.179.326Z" transform="translate(-128.31 -290.836)" fill="#a5a5a5"/>
    </g>
    <g id="Group_9" data-name="Group 9" transform="translate(113.492 300.586)">
      <path id="Path_8" data-name="Path 8" d="M133.419,324.637a.772.772,0,0,1-.532-.212c-2.722-2.591-3.99-4.522-3.99-6.075a2.709,2.709,0,0,1,4.522-2.011,2.709,2.709,0,0,1,4.523,2.011c-.016,1.562-1.284,3.49-3.989,6.072A.768.768,0,0,1,133.419,324.637Zm-1.814-8.175a1.891,1.891,0,0,0-1.889,1.888c0,1.272,1.245,3.106,3.7,5.45,2.479-2.371,3.691-4.156,3.7-5.454a1.89,1.89,0,0,0-3.381-1.155.424.424,0,0,1-.646,0A1.88,1.88,0,0,0,131.605,316.462Z" transform="translate(-128.897 -315.643)" fill="#a5a5a5"/>
    </g>
    <g id="Group_10" data-name="Group 10" transform="translate(103.332 300.586)">
      <path id="Path_9" data-name="Path 9" d="M108.846,324.62h-1.191a1.073,1.073,0,0,1-1.031-1.366,2.431,2.431,0,0,1-2.534-2.333c0-.94.56-1.623,2.162-3.334.31-.332.788-.895,1.422-1.671a.741.741,0,0,1,1.16.014c.566.734,1.023,1.294,1.36,1.667l.15.165a19.545,19.545,0,0,1,1.325,1.514,2.831,2.831,0,0,1,.738,1.612c0,.013,0,.026,0,.034a2.426,2.426,0,0,1-2.505,2.333h-.027a1.072,1.072,0,0,1-1.03,1.366ZM107.36,322.3a.409.409,0,0,1,.366.594c-.066.131-.163.308-.289.526a.252.252,0,0,0,.219.378h1.191a.252.252,0,0,0,.211-.39,5.68,5.68,0,0,1-.308-.522.41.41,0,0,1,.509-.569,1.841,1.841,0,0,0,.645.115,1.609,1.609,0,0,0,1.686-1.514,2.172,2.172,0,0,0-.568-1.146,19.091,19.091,0,0,0-1.281-1.463l-.152-.167c-.339-.375-.789-.925-1.34-1.636-.615.752-1.085,1.3-1.4,1.637-1.6,1.706-1.941,2.2-1.941,2.774a1.608,1.608,0,0,0,1.685,1.514,1.857,1.857,0,0,0,.627-.108A.412.412,0,0,1,107.36,322.3Z" transform="translate(-104.091 -315.643)" fill="#a5a5a5"/>
    </g>
  </g>
</svg>
