<svg xmlns="http://www.w3.org/2000/svg" width="142.5" height="49.62" viewBox="0 0 142.5 49.62">
  <g id="Group_2" data-name="Group 2" transform="translate(-110.5 -91.19)">
    <text id="CASINO" transform="translate(169 127)" fill="#fff" font-size="20" font-family="MostraNuova, Mostra Nuova" letter-spacing="0.2em"><tspan x="0" y="0">CASINO</tspan></text>
    <path id="Path_1" data-name="Path 1" d="M130.136-46l5.888,29.878c.153-.031.266-.05.377-.076,1.179-.274,2.359-.546,3.535-.829a.521.521,0,0,1,.459.083q3.677,2.5,7.359,4.995c.057.039.109.086.168.133-.058.147-.187.143-.294.168l-5.15,1.2L137.707-9.33c-.09.021-.178.049-.314.086l2.545,12.825h-8l-2-11.077c-.143.024-.256.037-.366.062Q118.307-4.81,107.045-2.189a.769.769,0,0,0-.5.343c-1.168,1.723-2.347,3.439-3.512,5.165a.6.6,0,0,1-.573.3c-2.564-.011-5.129-.006-7.694-.006h-.307a.339.339,0,0,1-.028-.042c0-.01-.011-.026-.006-.032q17.753-24.656,35.508-49.31C129.978-45.833,130.037-45.888,130.136-46Zm-4.131,16.665c-.063.02-.092.021-.105.035a1.051,1.051,0,0,0-.11.137q-6.07,9.1-12.138,18.2c0,.008,0,.023,0,.034a.44.44,0,0,0,.039.056l4.987-1.173c1.669-.392,3.34-.779,5.009-1.175s3.332-.763,5-1.186Z" transform="translate(16.078 137.189)" fill="#fff"/>
  </g>
</svg>
