<svg xmlns="http://www.w3.org/2000/svg" width="19.072" height="19" viewBox="0 0 19.072 19">
  <path id="Path_4" data-name="Path 4" d="M186.9,297.022c-2.972-9.542-16.645-8.8-18.512,1.032a9.529,9.529,0,0,0,3.393,9.088l0,.007a9.565,9.565,0,0,0,11.976,0v0A9.544,9.544,0,0,0,186.9,297.022Zm-7.476,11.038a8.49,8.49,0,0,1-6.379-1.272,5.256,5.256,0,0,1,9.439-.007A8.485,8.485,0,0,1,179.425,308.06Zm-4.379-6.97a3.038,3.038,0,1,1,5.476-.066A3.064,3.064,0,0,1,175.046,301.089Zm8.284,5.042a6.439,6.439,0,0,0-3.372-2.95,4.082,4.082,0,1,0-4.383,0,6.43,6.43,0,0,0-3.372,2.954,8.479,8.479,0,1,1,11.128-.005Z" transform="translate(-168.232 -290.256)" fill="#a5a5a5"/>
</svg>
