<svg xmlns="http://www.w3.org/2000/svg" width="19.816" height="19.81" viewBox="0 0 19.816 19.81">
  <path id="Path_18" data-name="Path 18" d="M500.55,168.4a.762.762,0,1,0-1.524,0v5.785a.762.762,0,0,0,.512.719l4.085,1.423a.762.762,0,1,0,.5-1.439l-3.572-1.245Zm8.138,8.078a.762.762,0,1,0,.491.844.764.764,0,0,0-.491-.844Zm-6.027-10.217a.766.766,0,1,0-.613-.316.768.768,0,0,0,.613.316Zm5.143,5.448a.763.763,0,0,0,.732.533.7.7,0,0,0,.221-.031.762.762,0,1,0-.953-.5Zm-2.575-4.122a.762.762,0,1,0-.681-.416.765.765,0,0,0,.681.416Zm3.725,6a.763.763,0,0,0-.777.747v.008a.758.758,0,0,0,.747.77h.015a.762.762,0,1,0,.015-1.524Zm-1.7-3.932a.788.788,0,0,0,.442-.137.773.773,0,1,0-.442.137Zm.264,9.492a.763.763,0,0,1,.141,1.067,9.905,9.905,0,1,1-7.862-15.93.762.762,0,1,1,0,1.524,8.381,8.381,0,1,0,6.653,13.479.762.762,0,0,1,1.069-.14Z" transform="translate(-489.893 -164.279)" fill="#a5a5a5"/>
</svg>
