<svg xmlns="http://www.w3.org/2000/svg" width="21.641" height="19" viewBox="0 0 21.641 19">
  <path id="Path_10" data-name="Path 10" d="M118,237.934c2.809,0,5.088-.833,5.088-1.862s-2.279-1.86-5.088-1.86-5.089.833-5.089,1.86S115.185,237.934,118,237.934Zm-4.722,9.82c1.844-2.12,2.709-4.387,1.933-5.061s-2.9.5-4.743,2.618-2.709,4.387-1.933,5.062S111.43,249.875,113.274,247.754Zm10.546-11.805c-.16-1.245-2.706-2.234-5.825-2.234s-5.665.989-5.825,2.234h-.008v2.482h.008c.148,1.244,2.53,2.242,5.648,2.242.3,0,.356-.024.454-.135.785-.889,3.486-1.2,4.867-1.2.736,0,.688-.613.688-1.029v-2.358Zm-6.2,10.037c0-.133.088-.18.2-.108,0,0,1.948,1.454,5.913,1.454s5.374-1.578,5.374-1.578c.1-.09.176-.056.176.076v1.578a.963.963,0,0,1-.124.448s-.77,1.881-5.426,1.881-5.946-1.649-5.946-1.649a.674.674,0,0,1-.169-.412Zm0,2.978c0-.133.088-.18.2-.108,0,0,1.948,1.454,5.913,1.454s5.374-1.578,5.374-1.578c.1-.09.176-.056.176.076v1.578a.963.963,0,0,1-.124.448s-.77,1.881-5.426,1.881-5.946-1.649-5.946-1.649a.673.673,0,0,1-.169-.412Zm5.833-4.824c2.81,0,5.088-.834,5.088-1.861s-2.278-1.862-5.088-1.862-5.088.833-5.088,1.862S120.645,244.14,123.455,244.14Zm-7.859-2.084c-1.045-.7-3.462.578-5.507,2.931s-2.971,4.925-2.136,5.862l-.006.006,1.874,1.629,0-.007c1.044.7,3.462-.577,5.508-2.931s2.97-4.924,2.135-5.861l.006-.005L115.6,242.05Zm1.691,5.376a9.859,9.859,0,0,1-.038,2.31,10.034,10.034,0,0,1-1.511-.112,14.5,14.5,0,0,0,1.549-2.2Zm-.41-5.077-.975-.848-.006.006c-.708-.471-1.987-.124-3.392.816a1.9,1.9,0,0,1-.3-.275.676.676,0,0,1-.168-.411v-1.691c0-.132.087-.18.2-.108a9.741,9.741,0,0,0,4.922,1.423,1.323,1.323,0,0,0-.274.63h-.01Zm12.4-.2c-.159-1.245-2.707-2.235-5.826-2.235s-5.665.99-5.824,2.235h-.009v2.481h.009c.159,1.244,2.706,2.234,5.824,2.234s5.666-.989,5.826-2.234h.008v-2.481Z" transform="translate(-107.647 -233.715)" fill="#a5a5a5" fill-rule="evenodd"/>
</svg>
